<svg width="1501" height="365" xmlns="http://www.w3.org/2000/svg" xmlns:xlink="http://www.w3.org/1999/xlink" xml:space="preserve" overflow="hidden"><defs><clipPath id="clip0"><rect x="2254" y="1346" width="1501" height="365"/></clipPath><clipPath id="clip1"><rect x="2403" y="1413" width="225" height="232"/></clipPath><clipPath id="clip2"><rect x="2403" y="1413" width="225" height="232"/></clipPath><clipPath id="clip3"><rect x="2403" y="1413" width="225" height="232"/></clipPath></defs><g clip-path="url(#clip0)" transform="translate(-2254 -1346)"><rect x="2256.5" y="1353.5" width="520" height="351" stroke="#314764" stroke-width="4.58333" stroke-linejoin="round" stroke-miterlimit="10" fill="#314764"/><path d="M2776.5 1468.78 3201.75 1468.78 3201.75 1472.22 2776.5 1472.22ZM3197.17 1456.75 3224.67 1470.5 3197.17 1484.25Z" fill="#213042"/><path d="M3228 1371.07C3228 1361.09 3236.09 1353 3246.07 1353L3729.93 1353C3739.91 1353 3748 1361.09 3748 1371.07L3748 1685.93C3748 1695.91 3739.91 1704 3729.93 1704L3246.07 1704C3236.09 1704 3228 1695.91 3228 1685.93Z" stroke="#314764" stroke-width="13.75" stroke-linejoin="round" stroke-miterlimit="10" fill="#314764" fill-rule="evenodd"/><path d="M3241 1418.62C3241 1410.55 3247.55 1404 3255.62 1404L3720.38 1404C3728.45 1404 3735 1410.55 3735 1418.62L3735 1673.38C3735 1681.45 3728.45 1688 3720.38 1688L3255.62 1688C3247.55 1688 3241 1681.45 3241 1673.38Z" fill="#FFFFFF" fill-rule="evenodd"/><text fill="#213042" font-family="Times New Roman,Times New Roman_MSFontService,sans-serif" font-weight="400" font-size="50" transform="matrix(1 0 0 1 3292.24 1655)">www.example.com</text><path d="M3353 1375.15C3353 1367.89 3358.89 1362 3366.15 1362L3721.85 1362C3729.11 1362 3735 1367.89 3735 1375.15L3735 1377.85C3735 1385.11 3729.11 1391 3721.85 1391L3366.15 1391C3358.89 1391 3353 1385.11 3353 1377.85Z" fill="#FFFFFF" fill-rule="evenodd"/><path d="M3240 1376C3240 1368.82 3245.82 1363 3253 1363 3260.18 1363 3266 1368.82 3266 1376 3266 1383.18 3260.18 1389 3253 1389 3245.82 1389 3240 1383.18 3240 1376Z" fill="#FFFFFF" fill-rule="evenodd"/><path d="M3315 1376C3315 1368.82 3320.82 1363 3328 1363 3335.18 1363 3341 1368.82 3341 1376 3341 1383.18 3335.18 1389 3328 1389 3320.82 1389 3315 1383.18 3315 1376Z" fill="#FFFFFF" fill-rule="evenodd"/><path d="M3278 1376C3278 1368.82 3283.82 1363 3291 1363 3298.18 1363 3304 1368.82 3304 1376 3304 1383.18 3298.18 1389 3291 1389 3283.82 1389 3278 1383.18 3278 1376Z" fill="#FFFFFF" fill-rule="evenodd"/><g clip-path="url(#clip1)"><g clip-path="url(#clip2)"><g clip-path="url(#clip3)"><path d="M110.214 120.493C109.374 121.688 108.665 122.671 107.983 123.665 97.1053 139.675 86.2309 155.684 75.3602 171.69 65.2471 186.579 55.124 201.459 44.9898 216.331 44.6497 216.803 44.125 217.108 43.5464 217.171 29.2389 217.048 14.9349 216.893 0.634479 216.706 0.475859 216.706 0.311952 216.659-1.35012e-14 216.611 0.115503 216.312 0.249713 216.021 0.401836 215.739 10.3808 200.268 20.3597 184.801 30.3386 169.337 39.1896 155.632 48.0459 141.931 56.9074 128.233 66.7276 113.013 76.543 97.7821 86.3525 82.5404 87.8012 80.2933 89.3081 78.0884 90.6828 75.799 91.0355 75.1862 91.1412 74.4619 90.9789 73.774 88.3353 65.346 85.6387 56.9392 82.9475 48.5323 81.7948 44.9317 80.5893 41.3521 79.5107 37.7303 79.1618 36.5671 78.5854 36.2129 77.3958 36.2181 68.4074 36.2552 59.4718 36.2446 50.5098 36.2446 48.8073 36.2446 48.802 36.2446 48.802 34.5632 48.802 23.5444 48.802 12.5257 48.7702 1.50689 48.7702 0.280228 49.1721 0.00528732 50.3247 0.00528732 68.3688 0.0370112 86.416 0.0370112 104.467 0.00528732 105.334-0.105606 106.149 0.444367 106.37 1.29011 115.887 25.2276 125.405 49.1562 134.922 73.0761 146.025 100.972 157.129 128.872 168.232 156.774 171.679 165.435 175.153 174.09 178.563 182.772 178.971 183.83 179.394 184.03 180.462 183.703 189.921 180.779 199.401 177.934 208.854 175.005 210.044 174.635 210.478 174.883 210.848 176.062 214.073 186.198 217.362 196.313 220.629 206.438 220.74 206.787 220.825 207.141 220.957 207.628 220.28 207.876 219.646 208.157 218.996 208.336 197.494 215.15 176.004 221.967 154.527 228.788 153.501 229.11 153.195 228.761 152.851 227.899 146.291 211.276 139.716 194.66 133.124 178.051 126.677 161.787 120.227 145.523 113.773 129.259 112.805 126.816 111.853 124.363 110.886 121.92 110.732 121.503 110.521 121.138 110.214 120.493Z" fill="#FFFFFF" transform="matrix(1 0 0 1.00338 2406.32 1414.12)"/></g></g></g><path d="M1.38404e-06-1.71875 13.75-1.71874 13.75 1.71876-1.38404e-06 1.71875ZM24.0625-1.71873 37.8125-1.71872 37.8125 1.71878 24.0625 1.71877ZM48.125-1.71871 61.875-1.7187 61.875 1.7188 48.125 1.71879ZM72.1875-1.71869 85.9375-1.71868 85.9375 1.71882 72.1875 1.71881ZM96.25-1.71867 110-1.71866 110 1.71884 96.25 1.71883ZM120.312-1.71865 134.062-1.71864 134.062 1.71886 120.312 1.71885ZM144.375-1.71863 158.125-1.71862 158.125 1.71888 144.375 1.71887ZM168.438-1.71861 182.188-1.7186 182.188 1.7189 168.438 1.71889ZM192.5-1.71859 206.25-1.71858 206.25 1.71892 192.5 1.71891ZM216.562-1.71858 230.312-1.71856 230.312 1.71894 216.562 1.71892ZM240.625-1.71856 254.375-1.71855 254.375 1.71895 240.625 1.71894ZM264.688-1.71854 278.438-1.71853 278.438 1.71897 264.688 1.71896ZM288.75-1.71852 302.5-1.71851 302.5 1.71899 288.75 1.71898ZM312.812-1.7185 326.562-1.71849 326.562 1.71901 312.812 1.719ZM336.875-1.71848 350.625-1.71847 350.625 1.71903 336.875 1.71902ZM360.938-1.71846 374.688-1.71845 374.688 1.71905 360.938 1.71904ZM385-1.71844 398.75-1.71843 398.75 1.71907 385 1.71906ZM409.062-1.71842 422.812-1.71841 422.812 1.71909 409.062 1.71908ZM420.67-13.7497 448.17 0.000360892 420.67 13.7503Z" fill="#213042" transform="matrix(-1 0 0 1 3224.67 1574.5)"/><text fill="#213042" font-family="Times New Roman,Times New Roman_MSFontService,sans-serif" font-weight="400" font-size="48" transform="matrix(1 0 0 1 2919.8 1428)">[<tspan font-size="48" x="16.0415" y="0">POST]</tspan></text></g></svg>