<svg width="1492" height="356" xmlns="http://www.w3.org/2000/svg" xmlns:xlink="http://www.w3.org/1999/xlink" xml:space="preserve" overflow="hidden"><defs><clipPath id="clip0"><rect x="215" y="532" width="1492" height="356"/></clipPath><clipPath id="clip1"><rect x="365" y="595" width="224" height="230"/></clipPath><clipPath id="clip2"><rect x="365" y="595" width="224" height="230"/></clipPath><clipPath id="clip3"><rect x="365" y="595" width="224" height="230"/></clipPath><clipPath id="clip4"><rect x="1332" y="595" width="225" height="230"/></clipPath><clipPath id="clip5"><rect x="1332" y="595" width="225" height="230"/></clipPath><clipPath id="clip6"><rect x="1332" y="595" width="225" height="230"/></clipPath></defs><g clip-path="url(#clip0)" transform="translate(-215 -532)"><rect x="217.5" y="534.5" width="520" height="351" stroke="#314764" stroke-width="4.58333" stroke-linejoin="round" stroke-miterlimit="10" fill="#314764"/><g clip-path="url(#clip1)"><g clip-path="url(#clip2)"><g clip-path="url(#clip3)"><path d="M110.214 120.493C109.373 121.687 108.665 122.671 107.983 123.665 97.1052 139.675 86.2308 155.683 75.3601 171.69 65.247 186.579 55.1239 201.459 44.9897 216.33 44.6496 216.803 44.1249 217.108 43.5463 217.171 29.2388 217.048 14.9349 216.892 0.634477 216.706 0.475858 216.706 0.311951 216.658-1.35012e-14 216.611 0.115502 216.312 0.249713 216.021 0.401836 215.738 10.3807 200.268 20.3597 184.801 30.3386 169.337 39.1896 155.632 48.0458 141.931 56.9073 128.233 66.7275 113.013 76.5428 97.782 86.3524 82.5402 87.8011 80.2931 89.308 78.0883 90.6827 75.7989 91.0354 75.1861 91.1411 74.4617 90.9788 73.7739 88.3351 65.3459 85.6386 56.9391 82.9474 48.5322 81.7947 44.9316 80.5892 41.3521 79.5106 37.7303 79.1616 36.5671 78.5853 36.2128 77.3957 36.2181 68.4072 36.2551 59.4717 36.2445 50.5097 36.2445 48.8072 36.2445 48.8019 36.2445 48.8019 34.5632 48.8019 23.5444 48.8019 12.5256 48.7702 1.50688 48.7702 0.280228 49.172 0.00528731 50.3246 0.00528731 68.3687 0.0370112 86.4158 0.0370112 104.467 0.00528731 105.334-0.105606 106.149 0.444366 106.37 1.2901 115.887 25.2275 125.404 49.1561 134.922 73.0759 146.025 100.972 157.128 128.871 168.232 156.774 171.679 165.435 175.153 174.09 178.563 182.772 178.97 183.829 179.393 184.03 180.461 183.702 189.92 180.778 199.4 177.934 208.854 175.005 210.044 174.635 210.477 174.883 210.847 176.062 214.073 186.198 217.361 196.313 220.629 206.438 220.74 206.787 220.825 207.141 220.957 207.627 220.28 207.876 219.646 208.156 218.995 208.336 197.493 215.15 176.004 221.967 154.527 228.787 153.501 229.11 153.195 228.761 152.851 227.899 146.291 211.276 139.716 194.659 133.124 178.05 126.677 161.786 120.227 145.523 113.772 129.259 112.805 126.816 111.853 124.363 110.886 121.92 110.732 121.502 110.521 121.138 110.214 120.493Z" fill="#FFFFFF" transform="matrix(1 0 0 1.00338 367.321 595.117)"/></g></g></g><rect x="1184.5" y="534.5" width="520" height="351" stroke="#314764" stroke-width="4.58333" stroke-linejoin="round" stroke-miterlimit="10" fill="#314764"/><g clip-path="url(#clip4)"><g clip-path="url(#clip5)"><g clip-path="url(#clip6)"><path d="M110.214 120.493C109.374 121.688 108.665 122.671 107.983 123.665 97.1053 139.675 86.2309 155.684 75.3602 171.69 65.2471 186.579 55.124 201.459 44.9898 216.331 44.6497 216.803 44.125 217.108 43.5464 217.171 29.2389 217.048 14.9349 216.893 0.634479 216.706 0.475859 216.706 0.311952 216.659-1.35012e-14 216.611 0.115503 216.312 0.249713 216.021 0.401836 215.739 10.3808 200.268 20.3597 184.801 30.3386 169.337 39.1896 155.632 48.0459 141.931 56.9074 128.233 66.7276 113.013 76.543 97.7821 86.3525 82.5404 87.8012 80.2933 89.3081 78.0884 90.6828 75.799 91.0355 75.1862 91.1412 74.4619 90.9789 73.774 88.3353 65.346 85.6387 56.9392 82.9475 48.5323 81.7948 44.9317 80.5893 41.3521 79.5107 37.7303 79.1618 36.5671 78.5854 36.2129 77.3958 36.2181 68.4074 36.2552 59.4718 36.2446 50.5098 36.2446 48.8073 36.2446 48.802 36.2446 48.802 34.5632 48.802 23.5444 48.802 12.5257 48.7702 1.50689 48.7702 0.280228 49.1721 0.00528732 50.3247 0.00528732 68.3688 0.0370112 86.416 0.0370112 104.467 0.00528732 105.334-0.105606 106.149 0.444367 106.37 1.29011 115.887 25.2276 125.405 49.1562 134.922 73.0761 146.025 100.972 157.129 128.872 168.232 156.774 171.679 165.435 175.153 174.09 178.563 182.772 178.971 183.83 179.394 184.03 180.462 183.703 189.921 180.779 199.401 177.934 208.854 175.005 210.044 174.635 210.478 174.883 210.848 176.062 214.073 186.198 217.362 196.313 220.629 206.438 220.74 206.787 220.825 207.141 220.957 207.628 220.28 207.876 219.646 208.157 218.996 208.336 197.494 215.15 176.004 221.967 154.527 228.788 153.501 229.11 153.195 228.761 152.851 227.899 146.291 211.276 139.716 194.66 133.124 178.051 126.677 161.787 120.227 145.523 113.773 129.259 112.805 126.816 111.853 124.363 110.886 121.92 110.732 121.503 110.521 121.138 110.214 120.493Z" fill="#FFFFFF" transform="matrix(1 0 0 1.00337 1334.32 595.117)"/></g></g></g><path d="M735.5 664.781 1160.75 664.782 1160.75 668.219 735.5 668.219ZM1156.17 652.75 1183.67 666.5 1156.17 680.25Z" fill="#213042"/><path d="M1.38404e-06-1.71875 13.75-1.71874 13.75 1.71876-1.38404e-06 1.71875ZM24.0625-1.71873 37.8125-1.71872 37.8125 1.71878 24.0625 1.71877ZM48.125-1.71871 61.875-1.7187 61.875 1.7188 48.125 1.71879ZM72.1875-1.71869 85.9375-1.71868 85.9375 1.71882 72.1875 1.71881ZM96.25-1.71867 110-1.71866 110 1.71884 96.25 1.71883ZM120.312-1.71865 134.062-1.71864 134.062 1.71886 120.312 1.71885ZM144.375-1.71863 158.125-1.71862 158.125 1.71888 144.375 1.71887ZM168.438-1.71861 182.188-1.7186 182.188 1.7189 168.438 1.71889ZM192.5-1.71859 206.25-1.71858 206.25 1.71892 192.5 1.71891ZM216.562-1.71858 230.312-1.71856 230.312 1.71894 216.562 1.71892ZM240.625-1.71856 254.375-1.71855 254.375 1.71895 240.625 1.71894ZM264.688-1.71854 278.438-1.71853 278.438 1.71897 264.688 1.71896ZM288.75-1.71852 302.5-1.71851 302.5 1.71899 288.75 1.71898ZM312.812-1.7185 326.562-1.71849 326.562 1.71901 312.812 1.719ZM336.875-1.71848 350.625-1.71847 350.625 1.71903 336.875 1.71902ZM360.938-1.71846 374.688-1.71845 374.688 1.71905 360.938 1.71904ZM385-1.71844 398.75-1.71843 398.75 1.71907 385 1.71906ZM409.062-1.71842 422.812-1.71841 422.812 1.71909 409.062 1.71908ZM420.67-13.7497 448.17 0.000360892 420.67 13.7503Z" fill="#213042" transform="matrix(-1 0 0 1 1183.67 770.5)"/><text fill="#213042" font-family="Times New Roman,Times New Roman_MSFontService,sans-serif" font-weight="400" font-size="48" transform="matrix(1 0 0 1 875.905 624)">[invoke]</text></g></svg>