<svg width="1492" height="371" xmlns="http://www.w3.org/2000/svg" xmlns:xlink="http://www.w3.org/1999/xlink" xml:space="preserve" overflow="hidden"><defs><clipPath id="clip0"><rect x="2255" y="1839" width="1492" height="371"/></clipPath><clipPath id="clip1"><rect x="2403" y="1901" width="226" height="230"/></clipPath><clipPath id="clip2"><rect x="2403" y="1901" width="226" height="230"/></clipPath><clipPath id="clip3"><rect x="2403" y="1901" width="226" height="230"/></clipPath><clipPath id="clip4"><rect x="3412" y="1984" width="145" height="131"/></clipPath><clipPath id="clip5"><rect x="3412" y="1984" width="145" height="131"/></clipPath><clipPath id="clip6"><rect x="3412" y="1984" width="145" height="131"/></clipPath></defs><g clip-path="url(#clip0)" transform="translate(-2255 -1839)"><path d="M3744.5 1865.31C3744.5 1878.45 3628.09 1889.11 3484.5 1889.11 3340.91 1889.11 3224.5 1878.45 3224.5 1865.31 3224.5 1852.16 3340.91 1841.5 3484.5 1841.5 3628.09 1841.5 3744.5 1852.16 3744.5 1865.31L3744.5 2168.69C3744.5 2181.84 3628.09 2192.5 3484.5 2192.5 3340.91 2192.5 3224.5 2181.84 3224.5 2168.69L3224.5 1865.31" stroke="#314764" stroke-width="4.58333" stroke-linejoin="round" stroke-miterlimit="10" fill="none" fill-rule="evenodd"/><text fill="#213042" font-family="Times New Roman,Times New Roman_MSFontService,sans-serif" font-weight="700" font-size="69" transform="matrix(1 0 0 1 3371.4 1971)">Storage<tspan font-weight="400" font-size="48" x="-3.73535" y="198">DynamoDB</tspan></text><rect x="2257.5" y="1841.5" width="519" height="351" stroke="#314764" stroke-width="4.58333" stroke-linejoin="round" stroke-miterlimit="10" fill="#314764"/><path d="M2773.5 1956.78 3198.75 1956.78 3198.75 1960.22 2773.5 1960.22ZM3194.17 1944.75 3221.67 1958.5 3194.17 1972.25Z" fill="#213042"/><path d="M1.38404e-06-1.71875 13.75-1.71874 13.75 1.71876-1.38404e-06 1.71875ZM24.0625-1.71873 37.8125-1.71872 37.8125 1.71878 24.0625 1.71877ZM48.125-1.71871 61.875-1.7187 61.875 1.7188 48.125 1.71879ZM72.1875-1.71869 85.9375-1.71868 85.9375 1.71882 72.1875 1.71881ZM96.25-1.71867 110-1.71866 110 1.71884 96.25 1.71883ZM120.312-1.71865 134.062-1.71864 134.062 1.71886 120.312 1.71885ZM144.375-1.71863 158.125-1.71862 158.125 1.71888 144.375 1.71887ZM168.438-1.71861 182.188-1.7186 182.188 1.7189 168.438 1.71889ZM192.5-1.71859 206.25-1.71858 206.25 1.71892 192.5 1.71891ZM216.562-1.71858 230.312-1.71856 230.312 1.71894 216.562 1.71892ZM240.625-1.71856 254.375-1.71855 254.375 1.71895 240.625 1.71894ZM264.688-1.71854 278.438-1.71853 278.438 1.71897 264.688 1.71896ZM288.75-1.71852 302.5-1.71851 302.5 1.71899 288.75 1.71898ZM312.812-1.7185 326.562-1.71849 326.562 1.71901 312.812 1.719ZM336.875-1.71848 350.625-1.71847 350.625 1.71903 336.875 1.71902ZM360.938-1.71846 374.688-1.71845 374.688 1.71905 360.938 1.71904ZM385-1.71844 398.75-1.71843 398.75 1.71907 385 1.71906ZM409.062-1.71842 422.812-1.71841 422.812 1.71909 409.062 1.71908ZM420.67-13.7497 448.17 0.000360892 420.67 13.7503Z" fill="#213042" transform="matrix(-1 0 0 1 3221.67 2062.5)"/><text fill="#213042" font-family="Times New Roman,Times New Roman_MSFontService,sans-serif" font-weight="400" font-size="48" transform="matrix(1 0 0 1 2925.23 1917)">[<tspan font-size="48" x="16.0417" y="0">write]</tspan></text><g clip-path="url(#clip1)"><g clip-path="url(#clip2)"><g clip-path="url(#clip3)"><path d="M110.105 120.374C109.265 121.567 108.558 122.55 107.876 123.543 97.0094 139.537 86.1457 155.53 75.2857 171.52 65.1826 186.395 55.0695 201.26 44.9453 216.117 44.6055 216.589 44.0813 216.894 43.5033 216.957 29.21 216.834 14.9202 216.678 0.633851 216.492 0.475388 216.492 0.311644 216.444-1.34879e-14 216.397 0.115388 216.098 0.249466 215.807 0.401439 215.525 10.3705 200.07 20.3396 184.618 30.3087 169.17 39.1509 155.478 47.9984 141.791 56.8512 128.107 66.6616 112.901 76.4673 97.6855 86.2672 82.4588 87.7145 80.2139 89.2199 78.0113 90.5932 75.7241 90.9455 75.1119 91.0512 74.3883 90.889 73.7011 88.248 65.2814 85.5541 56.8829 82.8655 48.4843 81.714 44.8872 80.5097 41.3113 79.4321 37.693 79.0835 36.531 78.5078 36.1771 77.3193 36.1823 68.3397 36.2193 59.413 36.2088 50.4598 36.2088 48.759 36.2088 48.7537 36.2088 48.7537 34.5291 48.7537 23.5212 48.7537 12.5133 48.722 1.5054 48.722 0.279951 49.1235 0.00528209 50.275 0.00528209 68.3012 0.0369747 86.3306 0.0369747 104.364 0.00528209 105.23-0.105501 106.044 0.443927 106.265 1.28883 115.773 25.2026 125.281 49.1076 134.788 73.0038 145.881 100.872 156.973 128.744 168.066 156.619 171.51 165.271 174.98 173.918 178.387 182.591 178.794 183.648 179.216 183.849 180.283 183.521 189.733 180.6 199.204 177.758 208.648 174.832 209.836 174.462 210.27 174.711 210.639 175.888 213.861 186.014 217.147 196.119 220.411 206.234 220.522 206.583 220.607 206.937 220.739 207.423 220.063 207.671 219.429 207.951 218.779 208.13 197.298 214.937 175.83 221.748 154.374 228.562 153.35 228.884 153.043 228.535 152.7 227.674 146.147 211.067 139.578 194.467 132.993 177.875 126.552 161.627 120.108 145.379 113.66 129.131 112.693 126.691 111.743 124.24 110.776 121.8 110.623 121.383 110.412 121.018 110.105 120.374Z" fill="#FFFFFF" transform="matrix(1.00546 0 0 1 2406.33 1902.12)"/></g></g></g><g clip-path="url(#clip4)"><g clip-path="url(#clip5)"><g clip-path="url(#clip6)"><path d="M44.3893 117.221 33.4679 111.715 27.8421 105.101 22.2163 98.4872 22.3672 92.6566C22.5143 86.9717 22.5547 86.8171 23.9821 86.4838 26.2297 85.9589 26.2382 83.8429 23.9975 82.6843L22.1835 81.7462 22.3508 76.0877C22.5133 70.593 22.5605 70.4196 23.9821 70.0849 25.2353 69.7902 25.446 69.4112 25.446 67.4511 25.446 65.491 25.2353 65.112 23.9821 64.8173 22.5607 64.483 22.5133 64.3087 22.3509 58.8201 22.1919 53.4458 22.2495 53.1331 23.5221 52.4629 26.2668 51.0171 26.4693 49.1988 23.9821 48.3319L22.2253 47.7196 22.2253 42.0105 22.2253 36.3016 27.9348 29.6241 33.6442 22.9467 44.9497 17.2372 56.2548 11.5277 71.1596 11.5277 86.0648 11.5277 98.2101 17.6184 110.356 23.709 114.787 28.8909C121.394 36.6179 121.264 36.339 121.066 42.3447 120.902 47.352 120.842 47.5549 119.286 48.2989 117.241 49.277 117.175 51.1444 119.154 52.0461 121.01 52.8915 121.286 54.0132 121.07 59.8158 120.905 64.2402 120.823 64.4909 119.433 64.8177 118.179 65.112 117.968 65.491 117.968 67.4511 117.968 69.4112 118.179 69.7902 119.433 70.0849 120.845 70.4174 120.902 70.6146 121.064 75.7658L121.232 81.1024 119.421 82.3914C117.223 83.9567 117.229 85.969 119.433 86.4838 120.852 86.8154 120.902 86.9959 121.062 92.3698 121.251 98.6695 121.648 97.8307 114.455 106.33L110.356 111.173 98.796 116.981 87.2365 122.789 71.2738 122.758 55.311 122.727Z" fill="#ACBED6" transform="matrix(1.00268 0 0 1 3412.07 1984)"/><path d="M55.8965 122.235C54.9302 121.996 49.6257 119.534 44.1086 116.764L34.0779 111.727 28.4444 105.152 22.8109 98.5782 22.8109 92.823C22.8109 87.5839 22.9094 87.0683 23.9104 87.0683 24.5151 87.0683 25.3444 86.6652 25.7532 86.1724 26.7216 85.0055 25.7131 82.64 24.0177 82.102 22.914 81.752 22.8109 81.2579 22.8109 76.324L22.8109 70.9286 24.5677 70.2654C26.0433 69.7085 26.3244 69.2851 26.3244 67.6193 26.3244 65.419 25.4619 64.2305 23.865 64.2305 22.9237 64.2305 22.8109 63.6337 22.8109 58.655 22.8109 53.2872 22.8651 53.0545 24.2636 52.4172 26.9095 51.2116 26.6492 47.8338 23.9104 47.8338 22.9084 47.8338 22.8109 47.3169 22.8109 42.0051L22.8109 36.1761 28.4407 29.6638 34.0704 23.1515 45.182 17.6324 56.2935 12.1133 71.7248 12.1133C81.5666 12.1133 87.2897 12.3293 87.5247 12.7097 87.7276 13.0377 87.9406 17.5795 87.9985 22.8025L88.1035 32.2989 97.7657 35.3407C103.08 37.0137 107.916 38.401 108.513 38.4235 109.524 38.4619 109.584 37.9664 109.391 31.1447 109.278 27.1187 109.354 23.8248 109.561 23.8249 109.767 23.8249 112.332 26.6578 115.259 30.1201L120.582 36.4151 120.593 41.7998C120.603 47.1017 120.579 47.1966 118.993 47.9542 116.65 49.0737 116.562 51.101 118.802 52.3759L120.596 53.397 120.6 58.8135C120.603 64.1756 120.589 64.2305 119.166 64.2305 117.995 64.2305 117.659 64.5994 117.356 66.2183 116.906 68.6184 117.872 70.6717 119.453 70.6717 120.509 70.6717 120.604 71.0946 120.609 75.7957 120.614 80.8283 120.582 80.9465 118.78 82.4274 117.337 83.6132 117.034 84.214 117.361 85.2422 117.589 85.9616 118.412 86.7916 119.19 87.0872 120.542 87.6015 120.603 87.8571 120.603 92.9803L120.603 98.3353 115.871 103.974C108.861 112.326 109.137 112.311 109.391 104.321 109.508 100.63 109.464 97.247 109.293 96.8012 109.047 96.1613 106.883 96.6457 98.9787 99.1096 93.477 100.825 88.7135 102.39 88.3929 102.588 88.0455 102.803 87.8106 106.803 87.8106 112.513 87.8106 120.695 87.6766 122.129 86.8843 122.434 85.5738 122.936 58.0199 122.76 55.8965 122.235ZM99.8154 89.5313 109.185 87.3499 109.348 79.5964 109.511 71.843 105.78 71.843C103.728 71.843 98.8452 72.0151 94.9298 72.2259L87.811 72.6085 87.811 82.4845 87.811 92.361 89.1286 92.0369C89.8532 91.8586 94.6623 90.7312 99.8154 89.5313ZM109.478 55.481C109.478 51.3131 109.275 47.778 109.028 47.6252 108.781 47.4728 104.631 46.4262 99.8052 45.2997 94.9799 44.1732 90.3003 43.0666 89.4066 42.8405L87.782 42.4295 87.9428 52.3052 88.1035 62.1808 94.2521 62.5054C97.6339 62.6841 102.443 62.8818 104.939 62.9446L109.478 63.0592Z" fill="#829DC1" transform="matrix(1.00268 0 0 1 3412.07 1984)"/><path d="M44.4016 116.934 34.0781 111.727 28.4445 105.153 22.8109 98.5782 22.8109 92.823C22.8109 87.5839 22.9094 87.0683 23.9104 87.0683 24.5151 87.0683 25.3444 86.6652 25.7532 86.1724 26.7216 85.0055 25.7131 82.64 24.0177 82.102 22.914 81.752 22.8109 81.2579 22.8109 76.324L22.8109 70.9286 24.5677 70.2654C26.0433 69.7085 26.3244 69.2851 26.3244 67.6193 26.3244 65.419 25.4619 64.2305 23.865 64.2305 22.9237 64.2305 22.8109 63.6337 22.8109 58.655 22.8109 53.2872 22.8651 53.0545 24.2636 52.4172 26.9095 51.2116 26.6492 47.8338 23.9104 47.8338 22.9084 47.8338 22.8109 47.3169 22.8109 42.0051L22.8109 36.1761 28.4199 29.6879 34.0289 23.1996 44.5175 17.9493 55.0058 12.6989 71.1381 12.6989 87.2704 12.6989 87.1961 22.4069C87.1553 27.7462 87.2352 32.2283 87.3736 32.3669 87.7939 32.7869 108.196 39.0502 109.144 39.0502 109.873 39.0502 110.055 37.8121 110.192 31.9363L110.356 24.8223 115.48 30.8126 120.603 36.8029 120.603 41.9937C120.603 47.0797 120.571 47.2001 118.993 47.9528 116.563 49.1123 116.482 51.5885 118.834 52.8046L120.648 53.7431 120.48 58.8403C120.324 63.5524 120.215 63.9512 119.048 64.1176 116.57 64.4707 116.555 70.4301 119.032 70.7828 120.22 70.9514 120.323 71.3287 120.48 76.0618L120.648 81.159 118.869 82.0791C116.378 83.3677 116.567 86.0903 119.22 87.0986 120.532 87.5976 120.603 87.8949 120.603 92.8621L120.603 98.0994 115.48 104.09 110.356 110.08 110.192 102.966C110.052 96.9066 109.888 95.8521 109.091 95.8521 108.05 95.8521 89.158 101.573 87.8782 102.276 87.2295 102.632 87.0899 104.678 87.1816 112.462L87.2963 122.203 71.0107 122.172 54.7251 122.141ZM98.8575 90.2204C103.893 89.0557 108.482 87.8562 109.055 87.5558 109.987 87.067 110.08 86.1922 109.933 79.2798L109.77 71.55 99.2299 71.7639C93.4326 71.8812 88.3455 72.1631 87.9256 72.3902 87.3455 72.7042 87.1658 75.0776 87.1777 82.2781 87.1865 87.4891 87.201 91.8845 87.2093 92.0457 87.2444 92.6921 90.1198 92.2415 98.8575 90.2204ZM109.935 55.7871C110.041 50.9363 109.873 47.9946 109.467 47.5888 108.584 46.7042 88.2093 41.9861 87.6327 42.5324 87.0806 43.0554 86.9862 61.8431 87.533 62.3934 87.8984 62.761 102.007 63.4834 107.135 63.3965L109.77 63.3521Z" fill="#829DC1" transform="matrix(1.00268 0 0 1 3412.07 1984)"/><path d="M44.4459 116.664 33.5813 111.186 28.1961 104.873 22.8109 98.5588 22.8109 92.8134C22.8109 87.5835 22.9095 87.0683 23.9104 87.0683 24.5151 87.0683 25.3444 86.6652 25.7532 86.1724 26.7216 85.0055 25.7131 82.64 24.0177 82.102 22.914 81.752 22.8109 81.2579 22.8109 76.324L22.8109 70.9286 24.5677 70.2654C26.0433 69.7085 26.3244 69.2851 26.3244 67.6193 26.3244 65.419 25.4619 64.2305 23.865 64.2305 22.9237 64.2305 22.8109 63.6337 22.8109 58.655 22.8109 53.2872 22.8651 53.0545 24.2636 52.4172 26.9095 51.2116 26.6492 47.8338 23.9104 47.8338 22.9086 47.8338 22.8109 47.3173 22.8109 42.0164L22.8109 36.1987 28.1625 29.9741 33.5141 23.7495 44.5531 18.2242C50.6244 15.1853 55.7489 12.6989 55.9408 12.6989 56.1332 12.6989 56.2013 17.0443 56.0932 22.3552 55.9377 29.996 56.0594 32.0739 56.6765 32.3102 57.1051 32.4744 64.0882 32.6162 72.1943 32.6253L86.9326 32.6418 98.7802 36.3342C109.039 39.5314 111.182 40.4128 114.764 42.9056 117.039 44.489 119.329 46.0775 119.853 46.4359 120.687 47.0064 120.596 47.1891 119.119 47.9001 118.191 48.3468 117.289 49.2766 117.115 49.9661 116.807 51.1813 116.674 51.1493 112.763 48.9235 109.543 47.0916 106.704 46.1574 98.7161 44.3027L88.7039 41.9782 72.774 41.9782C62.4197 41.9782 56.7129 42.1904 56.4692 42.5846 56.2632 42.9182 56.0941 47.464 56.0937 52.686L56.0928 62.1808 72.9765 62.5352C92.5441 62.9463 110.25 63.5664 114.476 63.9885L117.425 64.2832 117.425 67.4774C117.425 69.2346 117.415 70.6958 117.404 70.7252 117.334 70.9031 86.6107 72.009 72.6998 72.334L56.1248 72.7213 56.0634 82.1411C56.0295 87.3222 56.1947 91.8739 56.431 92.256 56.7467 92.7664 61.0784 92.9385 72.7464 92.9043L88.6327 92.8577 98.8606 90.4821C107.356 88.5089 109.718 87.7214 112.807 85.8307 114.852 84.579 116.624 83.5548 116.744 83.5548 116.865 83.5548 117.131 84.2228 117.336 85.0393 117.555 85.9119 118.366 86.7815 119.303 87.1487 120.775 87.7258 120.815 87.8246 119.828 88.4456 119.241 88.8154 116.827 90.501 114.465 92.1919 112.103 93.8828 109.902 95.2662 109.575 95.2662 109.247 95.2662 104.282 96.7792 98.5413 98.6282L88.1035 101.99 72.0002 102.288 55.8965 102.586 55.8965 112.395C55.8965 117.79 55.7647 122.19 55.6035 122.173 55.4428 122.155 50.4215 119.676 44.4459 116.664Z" fill="#496A95" transform="matrix(1.00268 0 0 1 3412.07 1984)"/><path d="M28.2323 104.635 22.8204 98.4872 22.9621 92.9491C23.0995 87.5734 23.1465 87.4012 24.5677 87.0701 26.8507 86.5382 26.8693 83.9927 24.6024 82.3167 22.8416 81.015 22.8109 80.9043 22.8109 75.8708L22.8109 70.7498 24.4213 70.5645C25.9386 70.3897 26.0316 70.2101 26.0316 67.4511 26.0316 64.6925 25.9386 64.5125 24.4213 64.3381L22.8109 64.1528 22.8109 58.9611C22.8109 53.8402 22.8352 53.7523 24.6005 52.4954 26.865 50.8827 26.8473 48.363 24.5677 47.8321 23.1466 47.5009 23.0995 47.3288 22.9608 41.953L22.818 36.4151 27.8677 30.5593C30.645 27.3385 33.1468 24.6156 33.4272 24.5082 33.7076 24.4009 33.937 27.6289 33.937 31.6816 33.937 38.3481 34.036 39.0502 34.9763 39.0502 35.5479 39.0502 40.2252 37.7356 45.3704 36.1289L54.7251 33.2075 70.8302 33.201 86.9353 33.1944 98.2316 36.7008C108.402 39.8578 110.019 40.5434 114.457 43.5814 117.168 45.4372 119.396 47.1223 119.409 47.3266 119.422 47.5303 118.906 47.8351 118.261 48.0038 117.617 48.172 117.09 48.7517 117.09 49.2919 117.09 49.8321 116.892 50.1844 116.651 50.0746 116.409 49.9648 114.631 49.057 112.698 48.0574 110.405 46.8707 105.567 45.3981 98.7666 43.816L88.3481 41.3926 72.7552 41.3926C55.8828 41.3926 56.7876 41.2763 39.2073 45.7024L34.2298 46.9554 34.0675 55.2711 33.9052 63.5862 55.1485 63.2331C74.1404 62.9178 98.9387 63.4984 112.845 64.5845L117.09 64.9161 117.09 67.4463 117.09 69.9769 111.673 70.3093C99.6665 71.0458 87.4192 71.2993 61.313 71.3528L33.937 71.4082 33.937 79.4967C33.937 83.9448 34.1746 87.7315 34.4649 87.9111 34.7552 88.0903 39.5643 89.3486 45.1517 90.707L55.311 93.177 72.5856 93.1968 89.8603 93.217 99.5224 90.9538C106.393 89.3447 110.227 88.118 112.793 86.7086 116.929 84.4363 117.09 84.3967 117.09 85.659 117.09 86.1724 117.617 86.7302 118.261 86.8984 119.614 87.2524 119.791 87.9766 118.633 88.4206 118.194 88.5892 116.02 90.039 113.802 91.6425 110.231 94.224 108.45 94.9663 98.2233 98.1328L86.6766 101.708 70.8908 101.708 55.105 101.708 45.8386 98.8219C40.7421 97.2347 36.0451 95.8512 35.401 95.7476 34.2924 95.5693 34.2141 95.9663 33.937 103.171L33.6442 110.783Z" fill="#314764" transform="matrix(1.00268 0 0 1 3412.07 1984)"/><path d="M28.1535 103.841 23.3965 98.3116 23.3965 93.0215 23.3965 87.7315 25.0068 87.5462C26.4 87.3859 26.6415 87.0692 26.797 85.1974 26.9551 83.2953 26.7605 82.922 25.1867 82.1081 23.3967 81.1823 23.3965 81.1814 23.3965 76.0504L23.3965 70.9185 25.0068 70.9413C26.5872 70.9641 26.6172 70.8992 26.6172 67.4511 26.6172 64.1018 26.5487 63.9363 25.1532 63.9068 24.3481 63.8897 23.6234 63.6921 23.5429 63.4676 23.4624 63.2428 23.3965 60.9577 23.3965 58.3897 23.3965 53.7739 23.4172 53.7093 25.1867 52.794 26.7605 51.9802 26.9551 51.6069 26.797 49.7048 26.6415 47.833 26.4 47.5163 25.0068 47.356L23.3965 47.1707 23.3965 41.8708 23.3965 36.5709 27.9348 31.1154C30.4308 28.1149 32.6048 25.6419 32.7659 25.6198 33.0726 25.5777 32.4696 40.2983 32.1437 40.807 32.0405 40.968 31.8089 38.6481 31.629 35.6516L31.3019 30.2035 27.947 34.1877C24.6819 38.0653 24.5919 38.2663 24.5799 41.7034 24.5681 45.0942 24.6378 45.2615 26.3244 45.8979 27.9841 46.5246 28.0812 46.7398 28.0812 49.7926 28.0812 52.7264 27.9165 53.1419 26.297 54.2952 24.6243 55.4863 24.5236 55.7708 24.6866 58.8491 24.8432 61.8062 25.006 62.1668 26.3244 62.4742 27.7076 62.797 27.7978 63.0614 27.9582 67.264L28.1281 71.7121 26.3479 72.3327C24.6565 72.9225 24.5677 73.1135 24.5677 76.1646 24.5677 79.0641 24.7381 79.4972 26.3244 80.6267 27.9107 81.7563 28.0812 82.1894 28.0812 85.0889 28.0812 88.1307 27.9884 88.3328 26.3244 88.9129 24.6442 89.4984 24.5677 89.6736 24.5677 92.9289 24.5677 96.0612 24.7659 96.5768 27.0564 99.4012 32.1213 105.646 31.567 105.644 31.5816 99.4144 31.5888 96.3813 31.7923 94.0976 32.0339 94.3387 32.3946 94.6988 33.3026 108.636 33.0021 109.2 32.9516 109.294 30.7698 106.883 28.1535 103.841ZM44.7705 97.2711C38.3289 95.2298 33.8111 93.5481 34.7307 93.5345 35.6502 93.5209 41.0411 94.9588 46.7104 96.7305L57.0177 99.9511 71.2615 99.9511 85.5053 99.9511 97.0502 96.3576C107.296 93.1682 110.401 91.8085 113.284 89.248 113.606 88.9621 112.947 89.1439 111.82 89.6525 110.693 90.1611 105.069 91.6324 99.3226 92.9218L88.8747 95.2662 72.3164 95.2662 55.7586 95.2662 45.287 92.9095C39.5276 91.6135 34.2884 90.3135 33.6442 90.0214 31.0398 88.8396 34.9708 89.443 44.9185 91.7527L55.0071 94.0954 71.3344 94.0954 87.6621 94.0954 99.0867 91.4853C107.539 89.5546 111.29 88.4162 113.508 87.1087 115.571 85.8926 116.505 85.5913 116.505 86.1425 116.505 86.5826 116.924 87.1039 117.438 87.3011 118.139 87.5703 117.667 88.1347 115.535 89.5739 113.975 90.6271 111.886 92.0918 110.893 92.8292 109.901 93.5666 104.026 95.7344 97.8394 97.6462L86.5901 101.122 71.536 101.053 56.4819 100.983ZM31.6448 79.7484C31.6234 73.1188 31.8022 70.0871 32.1803 70.6717 32.8775 71.7507 32.8775 86.9098 32.1803 88.5321 31.872 89.2498 31.6645 85.8465 31.6448 79.7484ZM42.0371 70.1697C37.3131 69.9628 33.3165 69.6615 33.1558 69.5008 32.995 69.3396 49.1136 69.2078 68.9746 69.2078 105.987 69.2078 115.333 68.8547 115.333 67.4559 115.333 66.4484 112.328 66.1686 92.4954 65.3307 77.5507 64.6996 48.6283 64.9121 37.0164 65.7391 33.1543 66.0141 32.6486 65.9486 33.6442 65.3021 34.5718 64.6996 42.2441 64.5393 70.5359 64.5322 90.1826 64.5274 108.563 64.7444 111.381 65.0149L116.505 65.5068 116.505 67.4335 116.505 69.3598 112.845 69.7182C107.401 70.2505 51.9587 70.6045 42.0371 70.1697ZM31.6358 55.0418C31.6611 48.9981 31.8712 45.6511 32.1803 46.37 32.8994 48.0433 32.8994 64.0785 32.1803 64.523 31.7982 64.7593 31.609 61.4649 31.6358 55.0418ZM115.609 49.071C114.18 47.7043 109.452 45.6208 106.257 44.9497 104.325 44.5439 99.5176 43.4457 95.5754 42.5094 88.5199 40.8337 88.1413 40.807 71.4117 40.807 55.4147 40.807 54.0642 40.891 48.4219 42.2376 37.8341 44.7648 34.4718 45.4921 33.4615 45.4741 31.1153 45.4315 34.709 44.3401 44.7705 42.0395L55.311 39.6292 72.3515 39.6327 89.3925 39.6362 99.5813 41.9771C105.185 43.2646 110.627 44.7094 111.673 45.1882 112.72 45.6669 113.576 45.9761 113.576 45.8746 113.576 45.7736 112.414 44.8561 110.994 43.836 109.181 42.5337 105.04 40.9348 97.088 38.4665L85.7644 34.9515 71.2079 34.9515 56.6514 34.9515 46.3441 38.1722C40.6747 39.9436 35.2346 41.3624 34.2547 41.325 33.0373 41.2786 32.844 41.1692 33.6442 40.9794 34.2884 40.8267 39.803 39.1445 45.8988 37.2411L56.9826 33.7803 71.9774 33.7803 86.9726 33.7803 98.3489 37.3081C104.606 39.2483 110.262 41.3216 110.919 41.9152 111.576 42.5089 113.526 43.9518 115.253 45.1218 116.98 46.2914 118.091 47.2488 117.722 47.2488 117.354 47.2488 116.855 47.7811 116.615 48.432 116.34 49.1742 115.966 49.4127 115.609 49.0715Z" fill="#314764" transform="matrix(1.00268 0 0 1 3412.07 1984)"/></g></g></g></g></svg>