<svg width="1501" height="365" xmlns="http://www.w3.org/2000/svg" xmlns:xlink="http://www.w3.org/1999/xlink" xml:space="preserve" overflow="hidden"><defs><clipPath id="clip0"><rect x="2250" y="399" width="1501" height="365"/></clipPath><clipPath id="clip1"><rect x="2400" y="467" width="224" height="230"/></clipPath><clipPath id="clip2"><rect x="2400" y="467" width="224" height="230"/></clipPath><clipPath id="clip3"><rect x="2400" y="467" width="224" height="230"/></clipPath></defs><g clip-path="url(#clip0)" transform="translate(-2250 -399)"><rect x="2252.5" y="406.5" width="520" height="351" stroke="#314764" stroke-width="4.58333" stroke-linejoin="round" stroke-miterlimit="10" fill="#314764"/><path d="M2772.5 520.781 3197.75 520.782 3197.75 524.219 2772.5 524.219ZM3193.17 508.75 3220.67 522.5 3193.17 536.25Z" fill="#213042"/><path d="M3224 424.069C3224 414.09 3232.09 406 3242.07 406L3725.93 406C3735.91 406 3744 414.09 3744 424.069L3744 738.931C3744 748.91 3735.91 757 3725.93 757L3242.07 757C3232.09 757 3224 748.91 3224 738.931Z" stroke="#314764" stroke-width="13.75" stroke-linejoin="round" stroke-miterlimit="10" fill="#314764" fill-rule="evenodd"/><path d="M3237 470.672C3237 462.569 3243.57 456 3251.67 456L3716.33 456C3724.43 456 3731 462.569 3731 470.672L3731 726.328C3731 734.431 3724.43 741 3716.33 741L3251.67 741C3243.57 741 3237 734.431 3237 726.328Z" fill="#FFFFFF" fill-rule="evenodd"/><text fill="#213042" font-family="Times New Roman,Times New Roman_MSFontService,sans-serif" font-weight="400" font-size="50" transform="matrix(1 0 0 1 3288.03 708)">www.example.com</text><path d="M3349 427.149C3349 419.887 3354.89 414 3362.15 414L3717.85 414C3725.11 414 3731 419.887 3731 427.149L3731 429.851C3731 437.113 3725.11 443 3717.85 443L3362.15 443C3354.89 443 3349 437.113 3349 429.851Z" fill="#FFFFFF" fill-rule="evenodd"/><path d="M3236 429C3236 421.82 3241.82 416 3249 416 3256.18 416 3262 421.82 3262 429 3262 436.18 3256.18 442 3249 442 3241.82 442 3236 436.18 3236 429Z" fill="#FFFFFF" fill-rule="evenodd"/><path d="M3311 429C3311 421.82 3316.82 416 3324 416 3331.18 416 3337 421.82 3337 429 3337 436.18 3331.18 442 3324 442 3316.82 442 3311 436.18 3311 429Z" fill="#FFFFFF" fill-rule="evenodd"/><path d="M3274 429C3274 421.82 3279.82 416 3287 416 3294.18 416 3300 421.82 3300 429 3300 436.18 3294.18 442 3287 442 3279.82 442 3274 436.18 3274 429Z" fill="#FFFFFF" fill-rule="evenodd"/><g clip-path="url(#clip1)"><g clip-path="url(#clip2)"><g clip-path="url(#clip3)"><path d="M110.105 120.374C109.265 121.567 108.558 122.55 107.876 123.543 97.0094 139.537 86.1457 155.53 75.2857 171.52 65.1826 186.395 55.0695 201.26 44.9453 216.117 44.6055 216.589 44.0813 216.894 43.5033 216.957 29.21 216.834 14.9202 216.678 0.633851 216.492 0.475388 216.492 0.311644 216.444-1.34879e-14 216.397 0.115388 216.098 0.249466 215.807 0.401439 215.525 10.3705 200.07 20.3396 184.618 30.3087 169.17 39.1509 155.478 47.9984 141.791 56.8512 128.107 66.6616 112.901 76.4673 97.6855 86.2672 82.4588 87.7145 80.2139 89.2199 78.0113 90.5932 75.7241 90.9455 75.1119 91.0512 74.3883 90.889 73.7011 88.248 65.2814 85.5541 56.8829 82.8655 48.4843 81.714 44.8872 80.5097 41.3113 79.4321 37.693 79.0835 36.531 78.5078 36.1771 77.3193 36.1823 68.3397 36.2193 59.413 36.2088 50.4598 36.2088 48.759 36.2088 48.7537 36.2088 48.7537 34.5291 48.7537 23.5212 48.7537 12.5133 48.722 1.5054 48.722 0.279951 49.1235 0.00528209 50.275 0.00528209 68.3012 0.0369747 86.3306 0.0369747 104.364 0.00528209 105.23-0.105501 106.044 0.443927 106.265 1.28883 115.773 25.2026 125.281 49.1076 134.788 73.0038 145.881 100.872 156.973 128.744 168.066 156.619 171.51 165.271 174.98 173.918 178.387 182.591 178.794 183.648 179.216 183.849 180.283 183.521 189.733 180.6 199.204 177.758 208.648 174.832 209.836 174.462 210.27 174.711 210.639 175.888 213.861 186.014 217.147 196.119 220.411 206.234 220.522 206.583 220.607 206.937 220.739 207.423 220.063 207.671 219.429 207.951 218.779 208.13 197.298 214.937 175.83 221.748 154.374 228.562 153.35 228.884 153.043 228.535 152.7 227.674 146.147 211.067 139.578 194.467 132.993 177.875 126.552 161.627 120.108 145.379 113.66 129.131 112.693 126.691 111.743 124.24 110.776 121.8 110.623 121.383 110.412 121.018 110.105 120.374Z" fill="#FFFFFF" transform="matrix(1.00099 0 0 1 2402.32 467.117)"/></g></g></g><path d="M1.38404e-06-1.71875 13.75-1.71874 13.75 1.71876-1.38404e-06 1.71875ZM24.0625-1.71873 37.8125-1.71872 37.8125 1.71878 24.0625 1.71877ZM48.125-1.71871 61.875-1.7187 61.875 1.7188 48.125 1.71879ZM72.1875-1.71869 85.9375-1.71868 85.9375 1.71882 72.1875 1.71881ZM96.25-1.71867 110-1.71866 110 1.71884 96.25 1.71883ZM120.312-1.71865 134.062-1.71864 134.062 1.71886 120.312 1.71885ZM144.375-1.71863 158.125-1.71862 158.125 1.71888 144.375 1.71887ZM168.438-1.71861 182.188-1.7186 182.188 1.7189 168.438 1.71889ZM192.5-1.71859 206.25-1.71858 206.25 1.71892 192.5 1.71891ZM216.562-1.71858 230.312-1.71856 230.312 1.71894 216.562 1.71892ZM240.625-1.71856 254.375-1.71855 254.375 1.71895 240.625 1.71894ZM264.688-1.71854 278.438-1.71853 278.438 1.71897 264.688 1.71896ZM288.75-1.71852 302.5-1.71851 302.5 1.71899 288.75 1.71898ZM312.812-1.7185 326.562-1.71849 326.562 1.71901 312.812 1.719ZM336.875-1.71848 350.625-1.71847 350.625 1.71903 336.875 1.71902ZM360.938-1.71846 374.688-1.71845 374.688 1.71905 360.938 1.71904ZM385-1.71844 398.75-1.71843 398.75 1.71907 385 1.71906ZM409.062-1.71842 422.812-1.71841 422.812 1.71909 409.062 1.71908ZM420.67-13.7497 448.17 0.000360892 420.67 13.7503Z" fill="#213042" transform="matrix(-1 0 0 1 3220.67 626.5)"/><text fill="#213042" font-family="Times New Roman,Times New Roman_MSFontService,sans-serif" font-weight="400" font-size="48" transform="matrix(1 0 0 1 2927.91 481)">[GET<tspan font-size="48" x="109.427" y="0">]</tspan></text></g></svg>